# xmcd
#
# Track frame offsets:
# 150
# 15166
# 29095
# 41869
# 56343
# 72214
# 90513
# 103502
# 117202
# 133813
# 145303
# 157832
# 173944
# 184728
# 194834
# 213563
#
# Disc length: 3058 seconds
#
# Revision: 0
# Processed by: cddbd v1.5.1PL2 Copyright (c) Steve Scherf et al.
# Submitted via: Audion 3.0.2 (http://www.panic.com/audion/)
#
DISCID=e40bf010
DTITLE=circuitbreaker - Circuitbreaker
DYEAR=1900
DGENRE=
TTITLE0=cb1
TTITLE1=cb2
TTITLE2=cb3
TTITLE3=cb4
TTITLE4=cb5
TTITLE5=cb6
TTITLE6=cb7
TTITLE7=cb8
TTITLE8=cb9
TTITLE9=cb10
TTITLE10=cb11
TTITLE11=cb12
TTITLE12=cb13
TTITLE13=cb14
TTITLE14=cb15
TTITLE15=cb16
EXTD=
EXTT0=
EXTT1=
EXTT2=
EXTT3=
EXTT4=
EXTT5=
EXTT6=
EXTT7=
EXTT8=
EXTT9=
EXTT10=
EXTT11=
EXTT12=
EXTT13=
EXTT14=
EXTT15=
PLAYORDER=
